<svg width="42" height="18" xmlns="http://www.w3.org/2000/svg">
 <g id="Layer_1">
  <title>Layer 1</title>
  <path d="m9.77484,2.58344c0,-0.05991 -0.05182,-0.24646 -0.17972,-0.38934c-0.1412,-0.15778 -0.34875,-0.36798 -0.71875,-0.44922c-0.26486,-0.05817 -0.63391,-0.09891 -1.01825,-0.02994c-0.42923,0.07703 -0.90439,0.29959 -1.19797,0.68881c-0.28229,0.37424 -0.50519,1.03387 -0.35938,1.70709c0.1532,0.70734 0.79279,1.38089 1.55734,1.88675c0.93887,0.62119 2.06281,0.93237 3.17456,0.92844c1.02222,-0.00363 1.93195,-0.28677 2.45578,-0.92844c0.38998,-0.47772 0.51343,-1.28781 0.2995,-1.97662c-0.21484,-0.69174 -0.81677,-1.34988 -1.61722,-1.61722c-0.69116,-0.23083 -1.53198,-0.11874 -2.12637,0.26953c-0.64218,0.41949 -1.16748,0.97906 -1.40759,1.64719c-0.19669,0.54724 -0.11127,1.28946 0.35938,1.82687c0.54575,0.62317 1.54703,1.01797 2.72534,1.10809c1.16461,0.08905 2.53534,-0.07037 3.504,-0.62891c0.77402,-0.44632 1.26178,-1.21405 1.28781,-2.00656c0.02377,-0.72397 -0.4249,-1.60095 -1.168,-1.97662c-0.77829,-0.39349 -1.65372,-0.30667 -2.21622,0.14975c-0.56009,0.45444 -0.88354,1.25241 -0.89847,1.97662c-0.01486,0.7211 0.38116,1.44839 1.13806,1.88675c0.89514,0.51843 2.18823,0.67935 3.59384,0.59897c1.32776,-0.07593 2.58392,-0.47723 3.20453,-1.07816c0.55524,-0.53763 0.67072,-1.39383 0.32944,-2.15631c-0.35291,-0.78848 -1.20694,-1.51678 -2.51569,-1.91672c-1.22458,-0.37421 -2.66864,-0.27872 -3.47406,0.2995c-0.73993,0.53119 -1.125,1.496 -0.77869,2.21622c0.39728,0.82617 1.48523,1.49301 2.90503,1.94666c1.52246,0.48645 3.28357,0.67001 4.82175,0.41928c1.26276,-0.20584 2.2951,-0.82596 2.60556,-1.52737c0.30688,-0.69336 0.08948,-1.67514 -0.47919,-2.45581c-0.54919,-0.75391 -1.51172,-1.41034 -2.51569,-1.37762c-0.74051,0.02411 -1.54752,0.61389 -1.94669,1.52737c-0.38391,0.8786 -0.46591,2.12726 0,3.14462c0.4946,1.07993 1.58832,1.948 2.90503,2.27609c1.40247,0.34946 3.01346,0.19803 4.28268,-0.41928c0.94876,-0.46146 1.63248,-1.40909 1.52737,-2.3959c-0.10632,-0.99838 -1.01541,-2.12143 -2.30603,-2.84512c-1.35837,-0.76169 -3.04483,-1.09753 -4.31262,-0.71878c-0.97565,0.29147 -1.68759,1.1123 -1.67715,1.97662c0.01089,0.90091 0.77567,1.88089 1.91672,2.51572c1.21011,0.67325 2.75897,0.99353 4.4025,0.8685c1.27676,-0.09714 2.49728,-0.63995 2.99487,-1.52737c0.42654,-0.76068 0.26028,-1.85333 -0.26956,-2.75531c-0.47632,-0.81085 -1.3302,-1.48947 -2.21619,-1.70706c-0.75845,-0.18628 -1.58026,0.0278 -1.97662,0.62891c-0.44391,0.67322 -0.52692,1.71329 -0.08984,2.57562c0.44412,0.87625 1.53851,1.61807 2.99487,2.00656c1.4938,0.39847 3.34454,0.46716 4.82175,0.17969c1.25586,-0.24438 2.37137,-0.7934 2.75528,-1.5274c0.32993,-0.6308 0.22052,-1.47092 -0.29947,-2.18625c-0.56046,-0.771 -1.47656,-1.28546 -2.33603,-1.37766c-0.95334,-0.10226 -1.96161,0.22513 -2.69537,0.71878c-0.7413,0.49872 -1.17807,1.1933 -1.13806,1.88678c0.0498,0.86295 0.71616,1.82632 1.767,2.54565c1.22696,0.83987 2.98041,1.37564 4.70193,1.52737c1.55161,0.13675 2.9129,0.08441 3.71365,-0.47919c0.53711,-0.37805 0.72775,-1.18439 0.56903,-1.91672c-0.18494,-0.85333 -0.80652,-1.67419 -1.4675,-2.42584c-0.62946,-0.71579 -1.50046,-1.34521 -2.6355,-1.64719c-1.11829,-0.29752 -2.47,-0.28879 -3.68369,-0.02994c-1.18689,0.25311 -2.06186,0.62079 -2.66544,1.168c-0.53433,0.48444 -0.85159,1.09857 -0.68881,1.73703c0.18542,0.72723 0.9426,1.45102 1.91672,2.00656c1.03574,0.59067 2.41467,0.97305 3.89334,1.07816c1.37415,0.09766 2.6655,-0.07193 3.41415,-0.65887c0.63416,-0.49716 0.91226,-1.26089 0.68881,-1.94669c-0.24982,-0.76672 -1.01239,-1.40576 -1.85681,-1.88675c-0.72165,-0.41107 -1.58292,-0.57156 -2.42587,-0.599c-0.71899,-0.02341 -1.51547,0.20486 -2.00656,0.68884c-0.44385,0.43744 -0.60168,1.14441 -0.35938,1.73703c0.24518,0.59967 0.83981,1.13422 1.67712,1.52737c1.04712,0.49167 2.24063,0.75714 3.5639,0.92841c1.19397,0.15454 2.31854,0.29672 3.17456,-0.02994c0.55188,-0.2106 0.8414,-0.66251 0.77869,-1.07816c-0.0863,-0.57196 -0.54507,-1.11334 -1.22791,-1.43753c-0.73596,-0.3494 -1.75888,-0.45129 -2.75528,-0.20966c-0.99469,0.24124 -2.1806,0.82956 -2.935,1.55734c-0.72034,0.69495 -1.18478,1.53955 -1.25784,2.30606c-0.06259,0.65659 0.24817,1.29456 0.68884,1.85681c0.40518,0.51697 0.95438,1.0163 1.58728,1.34769c0.63068,0.3302 1.29083,0.45132 1.91672,0.38934c0.60785,-0.06018 1.19064,-0.38742 1.70706,-0.77866c0.44019,-0.33347 0.86871,-0.88461 0.89847,-1.37766c0.02908,-0.48203 -0.34515,-0.97003 -0.98831,-1.31775c-0.85126,-0.46021 -1.92313,-0.63336 -3.05478,-0.50912c-1.10471,0.12128 -2.07404,0.62686 -2.60553,1.28781c-0.45392,0.56448 -0.58469,1.32251 -0.32944,2.0365c0.28012,0.78357 1.01492,1.5423 1.91672,2.06647c0.86069,0.50027 1.92212,0.60599 2.78525,0.50912c0.67148,-0.07535 1.19278,-0.3674 1.58728,-0.83856c0.38931,-0.46494 0.6105,-1.14557 0.50912,-1.82687c-0.10599,-0.71216 -0.46094,-1.29303 -1.04822,-1.67712c-0.72858,-0.4765 -1.80231,-0.67822 -2.90503,-0.56903c-1.06375,0.10532 -2.02634,0.50275 -2.87506,0.98831c-0.82941,0.47449 -1.45767,0.95749 -1.767,1.64719c-0.29129,0.64954 -0.2706,1.37952 0,2.00656c0.25031,0.58005 0.73947,1.08292 1.34772,1.40759c0.56912,0.30377 1.22812,0.42487 2.00656,0.38934c0.69394,-0.03168 1.37247,-0.24893 1.76697,-0.74872c0.39844,-0.50473 0.54123,-1.18484 0.26953,-1.79694c-0.39859,-0.89792 -1.55936,-1.68332 -3.23447,-2.21622c-1.75208,-0.5574 -3.37668,-0.56351 -4.79178,-0.26953c-1.16852,0.24277 -2.13773,0.72516 -2.3959,1.37766c-0.18762,0.47424 0.01138,1.22345 0.53906,1.88675c0.58008,0.72919 1.34933,1.18915 2.27612,1.4675c0.99567,0.29904 1.97281,0.37268 2.75528,0.14975c0.66992,-0.19086 1.03247,-0.64996 1.10809,-1.13806c0.07352,-0.47446 -0.09311,-1.05609 -0.56903,-1.70709c-0.5387,-0.73691 -1.50497,-1.57047 -2.78522,-2.15631c-1.36111,-0.62283 -2.85458,-0.85077 -4.19284,-0.68881c-1.09647,0.13269 -1.97729,0.53851 -2.48575,1.13806c-0.45178,0.53275 -0.59882,1.37146 -0.65887,2.24615c-0.0636,0.92624 0.19119,1.78381 0.80862,2.336c0.6749,0.60358 1.61746,0.87271 2.75528,0.80862c1.09131,-0.06149 2.08798,-0.44955 2.75531,-1.13806c0.62531,-0.64514 0.89279,-1.49713 0.83856,-2.51569c-0.04843,-0.90958 -0.46948,-1.84787 -1.25787,-2.45581c-0.97672,-0.75314 -2.36581,-1.01581 -3.68369,-0.95834c-1.35834,0.05923 -2.66147,0.37524 -3.8634,0.83856c-1.07541,0.41455 -1.96548,0.9418 -2.51569,1.58728c-0.46344,0.54367 -0.62292,1.16489 -0.44922,1.64719c0.20551,0.57053 0.75232,0.99832 1.46747,1.22791c0.81656,0.26212 1.76895,0.33615 2.90503,0.26953c1.02356,-0.06 1.97311,-0.23584 2.57559,-0.74872c0.43808,-0.37292 0.57111,-1.07422 0.35941,-1.64719c-0.29742,-0.80493 -0.90912,-1.44852 -1.91672,-2.09641c-0.94693,-0.60886 -2.14182,-0.9881 -3.35428,-1.13806c-1.22006,-0.15091 -2.24069,-0.1604 -3.29434,0.14975c-0.92828,0.27325 -1.77435,0.72836 -2.51572,1.31775c-0.69702,0.55411 -1.12064,1.17355 -1.25784,1.97659c-0.12622,0.73862 0.09573,1.42163 0.65887,1.97662c0.61008,0.60123 1.45615,0.89709 2.54565,1.07816c1.07013,0.17783 2.15488,0.23959 3.08472,0.26956c0.71841,0.02316 1.23654,-0.20682 1.58728,-0.65887c0.30554,-0.3938 0.51828,-0.9613 0.44922,-1.61725c-0.07452,-0.70795 -0.46753,-1.34561 -1.25784,-1.91672c-0.94543,-0.68323 -2.25183,-1.13809 -3.74359,-1.37766c-1.5127,-0.24292 -2.79852,-0.2294 -3.98318,-0.02994c-1.0387,0.1749 -1.71561,0.54797 -2.24615,0.98831c-0.48886,0.40573 -0.72958,0.86981 -0.68881,1.49744c0.04501,0.69318 0.254,1.3313 0.8685,1.88678c0.62247,0.56268 1.44919,0.89764 2.42584,1.168c0.97369,0.26953 1.88763,0.33746 2.72534,0.29947c0.66092,-0.02997 1.25485,-0.16785 1.58728,-0.65884c0.38364,-0.56662 0.49127,-1.48477 0.2995,-2.51572c-0.19748,-1.06158 -0.78552,-2.0314 -1.61722,-2.54565c-0.83286,-0.51495 -1.89456,-0.70364 -3.05478,-0.569c-1.03909,0.12057 -2.03241,0.6026 -2.66544,1.31772c-0.60016,0.67801 -0.90286,1.56711 -0.77869,2.30606c0.12259,0.72946 0.6709,1.30475 1.25784,1.61725c0.53528,0.28497 1.14536,0.3555 1.64719,0.26953c0.53217,-0.09116 0.935,-0.4321 1.25784,-0.95837c0.30847,-0.50284 0.44492,-1.27463 0.11981,-2.0365c-0.33905,-0.79456 -1.00793,-1.45773 -2.03653,-2.03653c-1.13437,-0.63831 -2.54196,-0.92834 -4.01312,-0.98831c-1.43634,-0.05853 -2.71359,0.17603 -3.53397,0.86853c-0.71497,0.60352 -1.09128,1.49844 -1.01825,2.36594c0.07495,0.89032 0.65735,1.6687 1.4675,2.21622c0.84366,0.57016 1.88052,0.88809 2.90503,0.92841c0.77863,0.03064 1.48007,-0.16895 1.88675,-0.65887c0.4888,-0.58887 0.68869,-1.37146 0.74872,-2.24615c0.06357,-0.92624 -0.07669,-1.81595 -0.59897,-2.51569c-0.58325,-0.7814 -1.53763,-1.34729 -2.45578,-1.43753c-0.89465,-0.08792 -1.64258,0.30838 -1.97662,1.07816c-0.3414,0.78671 -0.37665,1.74258 0.11978,2.60553c0.47812,0.83112 1.50897,1.37085 2.54565,1.55734c1.21423,0.21844 2.50006,0.13174 3.32431,-0.41928c0.81061,-0.5419 1.22684,-1.4653 1.168,-2.51572c-0.06833,-1.21976 -0.65909,-2.41284 -1.76697,-3.47403c-1.09879,-1.05246 -2.55051,-1.67035 -3.71365,-1.97662c-0.94293,-0.24829 -1.62509,-0.22156 -1.94666,0.14975c-0.35992,0.41559 -0.47992,1.06052 -0.32944,1.82687c0.16971,0.86432 0.63995,1.66852 1.34769,2.27609c0.7374,0.63306 1.74875,0.97827 2.57559,0.83856c0.71912,-0.12149 1.32394,-0.61282 1.61722,-1.34769c0.32037,-0.8028 0.32254,-1.77225 0.20966,-2.6355c-0.12262,-0.93765 -0.42221,-1.80219 -0.95837,-2.60553c-0.46222,-0.69257 -1.23087,-1.31641 -2.0365,-1.43756c-0.85889,-0.12915 -1.74854,0.01212 -2.336,0.47919c-0.56458,0.44888 -0.79663,1.17087 -0.53909,1.94669c0.27863,0.83932 1.07236,1.50629 1.94669,1.76697c0.99088,0.29544 1.91132,0.27121 2.51569,0.05991c0.60699,-0.21222 0.99054,-0.64105 1.10809,-1.168c0.13107,-0.58755 0.14529,-1.21082 0,-1.88678c-0.13333,-0.62042 -0.46133,-0.99213 -0.77866,-1.13806c-0.25812,-0.11871 -0.68335,-0.15073 -0.95837,0.14975c-0.3537,0.38644 -0.57214,1.05057 -0.50912,1.70706c0.08539,0.88937 0.73212,1.83191 1.67712,2.51572c1.11954,0.81006 2.57791,1.40118 3.83347,1.64719c1.15222,0.22574 2.07593,0.17923 2.336,-0.20966c0.27911,-0.4173 0.17072,-1.11038 -0.14975,-1.79694c-0.38672,-0.82849 -0.97321,-1.60568 -1.67712,-2.21619c-0.56561,-0.49057 -1.09421,-0.72195 -1.55734,-0.59897c-0.46671,0.12393 -0.87997,0.70001 -0.95837,1.40759c-0.0957,0.86374 0.21777,1.82877 0.77869,2.48572c0.68808,0.80591 1.84778,1.284 3.11465,1.70709c1.33875,0.44708 2.69412,0.71875 3.74362,0.74872c0.86813,0.02478 1.49377,-0.15891 1.67712,-0.56903c0.18698,-0.41821 0.07654,-1.08069 -0.26953,-1.52737c-0.50601,-0.65308 -1.49899,-1.20856 -2.60556,-1.4675c-1.05988,-0.24802 -2.01242,-0.18652 -2.87509,-0.02994c-0.93646,0.16998 -1.72925,0.48914 -1.91672,0.98831c-0.20035,0.53345 0.07248,1.15802 0.68884,1.67712c0.73087,0.61554 2.11465,1.06982 3.59384,1.37766c1.90402,0.39627 3.97852,0.68762 5.86996,0.80859c1.82413,0.11667 3.60071,0.10641 4.9715,-0.11978c1.35605,-0.22379 2.32449,-0.55844 2.87506,-0.98831c0.50076,-0.39099 0.67804,-0.87256 0.83856,-1.28781c0.14038,-0.36313 0.21167,-0.72455 0.2995,-1.07816c0.06848,-0.27573 0.17969,-0.50912 0.23959,-0.71875l0.02994,-0.17969l0,-0.08987l0,-0.08984" id="svg_2" stroke-width="3" stroke="#000" fill="none"/>
 </g>
</svg>