<svg width="130" height="52" xmlns="http://www.w3.org/2000/svg">
  <path stroke-linecap='round' d="m15.37103,14.22763c0,1 -0.2242,1.90283 -1,4c-1.4305,3.867 -4.41422,7.58578 -3,9c1.41422,1.41422 6.91122,-2.18271 15,-6c8.90685,-4.20335 18.3851,-12.62799 21,-9c0.8269,1.14726 -4.28415,3.73116 -9,9c-4.27039,4.77115 -8.15224,8.23463 -10,9c-1.30656,0.5412 2.04024,-2.95021 7,-7c6.0497,-4.93976 10.69344,-9.5412 12,-9c0.92387,0.38269 -2.22054,4.83128 -6,10c-4.25638,5.82094 -9,9 -8,10c2,2 5.34944,-6.38458 11,-10c5.39359,-3.45099 8.55278,-6.89442 9,-6c2.23607,4.47214 -9,9 -15,15c-6,6 -10.04428,8.95366 -9,8c5.76726,-5.26675 16.02333,-10.95741 27,-17c9.01932,-4.96507 14.69344,-9.5412 16,-9c0.92387,0.38269 -1.1377,2.89288 -5,8c-5.18884,6.86119 -10.08031,17.62358 -14,16c-1.84776,-0.76537 4.27805,-5.73428 10,-12c5.26675,-5.76726 9.38687,-13.0824 12,-12c2.77164,1.14806 -2.92577,10.04294 -7,17c-2.94666,5.03163 -4.19713,7.8763 -1,3c4.71669,-7.19394 11.58977,-14.44043 18,-20c3.77727,-3.27602 3.91136,-0.05815 0,6c-5.11707,7.92563 -8.82375,16.51375 -11,16c-0.97325,-0.22975 2.4808,-6.4808 9,-13c6.5192,-6.5192 13.82108,-14.70131 17,-13c0.88167,0.47186 0.20607,2.08743 -2,7c-3.66408,8.15932 -12.7229,16.22801 -9,18c4.51469,2.14886 7.65108,-9.43283 15,-15c5.74799,-4.35439 9.1387,-5.99034 9,-5c-1.00977,7.20975 -4.51064,15.26401 -9,23c-1.80972,3.11848 -2.30745,1.814 -1,0c2.48071,-3.4418 7.56392,-8.36774 11,-12c2.47778,-2.61926 2.20607,1.08743 0,6c-0.91602,2.03983 -1,3 -1,1l3,-1l2,0l1,0" id="svg_11" stroke-width="22" fill="none"/>
</svg>