<svg xmlns="http://www.w3.org/2000/svg" viewBox="0 0 129.91 129.91"><defs><style>.cls-1{fill:#ec694d;}</style></defs><g id="레이어_2" data-name="레이어 2"><g id="TEMPLATE"><path class="cls-1" d="M65,0a65,65,0,1,0,65,65A65,65,0,0,0,65,0ZM82.27,13.92a9.85,9.85,0,1,1-9.85,9.85A9.85,9.85,0,0,1,82.27,13.92Zm-34.63,0a9.85,9.85,0,1,1-9.85,9.85A9.85,9.85,0,0,1,47.64,13.92Zm62.45,67.54a28,28,0,0,1-2,2.46q-3.19,3.4-6.46,6.62-5.57-2.62-11-5.75A156.6,156.6,0,0,1,69.46,70c2.75-2.47,5.51-5.1,8.22-7.84L78,61.8A142.51,142.51,0,0,0,99.25,76.15l.24-.26A15.56,15.56,0,0,0,76.79,54.6Q75.16,56.34,73.5,58q-3.1,3.15-6.31,6.1l0,0c-.73.67-1.46,1.33-2.2,2h0A161.4,161.4,0,0,1,44.46,81.63l-1.15-1.09c-2.52-2.39-5-4.89-7.43-7.42A147.34,147.34,0,0,0,56.41,58q-1.65-1.68-3.29-3.42a15.44,15.44,0,0,0-10.85-4.9h-.51a15.56,15.56,0,0,0-11.34,26.2l.24.26q4.23,4.48,8.61,8.64A196,196,0,0,0,65,105.43,192.91,192.91,0,0,0,86.11,89l1.59.92c3,1.77,6.19,3.44,9.36,5A210.87,210.87,0,0,1,75.87,112.2Q70.5,116,65,119.43,59.41,116,54,112.2A213.17,213.17,0,0,1,28.32,90.54q-3.27-3.23-6.46-6.62a28,28,0,0,1-2-2.46h0A27.29,27.29,0,0,1,61.68,46.58C62.76,47.73,63.86,48.86,65,50c1.09-1.11,2.19-2.24,3.27-3.39a27.29,27.29,0,0,1,41.86,34.88Z"/></g></g></svg>